<svg xmlns="http://www.w3.org/2000/svg" viewBox="0 0 18 18">
  <g clip-path="url(#a)">
    <path fill="#D40054" d="M0 0h18v18H0V0Z"/>
    <path fill="#fff" d="M10.483 4c-.43 0-.699.176-.95.51A103007 103007 0 0 0 2.8 13.442h1.322c.772 0 1.296-.292 2.233-.957.779-.552 1.698-1.265 2.475-1.752 1.03-.645 1.734-.8 2.117-.218 1.077 1.63 1.196 1.962 1.86 1.962h.993L11.362 4h-.879Zm.406 5.762c-.634-.344-1.432-.152-2.388.321-.962.477-2.085 1.238-3.364 2.028l5.346-7.076 1.737 6.108c-.528-.6-.99-1.197-1.331-1.381Z"/>
  </g>
  <defs>
    <clipPath id="a">
      <path fill="#fff" d="M0 0h18v18H0z"/>
    </clipPath>
  </defs>
</svg>
