<svg xmlns="http://www.w3.org/2000/svg" viewBox="0 0 18 18">
  <g clip-path="url(#a)">
    <path fill="#fff" d="M0 0h18v18H0V0Z"/>
    <path fill="#FDDDCB" d="M11.934 9.97c-.327-.381-.7-.5-.82-.545a3.492 3.492 0 0 0-.727-.092c-.154.01-.4.065-.445.164-.038.082-.082.2-.191.31-.073.082-.201.218-.302.373-.163.227-.218.5-.281.81-.055.291-.1.619-.245.864l-.055.1-.092-.073c-.099-.071-.136-.155-.191-.254l-.145-.245c-.82-.811-1.21-1.411-1.63-2.43l-.154-.464v-.055c.245-.283.373-.619.455-.992a.468.468 0 0 0-.009-.228.553.553 0 0 1 0-.346s0-.072.009-.1a.571.571 0 0 0-.028-.127 1.587 1.587 0 0 0-.3-.354c-.081-.074-.136-.092-.172-.11l-.092-.018-.036-.055c-.073-.155-.173-.228-.283-.182-.109.046-.253.008-.291-.036a.21.21 0 0 0-.153-.092.554.554 0 0 0-.275.073c-.153.155-.245.201-.344.201a.177.177 0 0 0-.155.082l-.046.082h-.063a.33.33 0 0 0-.256.126l-.055.092-.236.254a1.29 1.29 0 0 0-.263.774l.036.046.245-.073.346-.145c.009-.01.191-.055.283.09.055.137.1.164.254.319.082.073-.619.537-.619.537l-.081.227c.145.138.19.2.327.373l.264.373.009.01c.218.974.465 1.928.738 2.857.5 1.747 1.692 3.085 2.147 3.158.428.082.747-.027 1.23-.474 0 0 .207-.172.381-.28a9.73 9.73 0 0 0 .846-.61c.373-.292.746-.638.91-.81.337-.338.61-.72.855-1.093 0 0 .082-.082.09-.4.01-.265 0-.519-.027-.674-.027-.163-.035-.545-.363-.937Z"/>
    <path fill="#004B8D" fill-rule="evenodd" d="M14.474 10.78c.09.229-.338.219-.12.428a.799.799 0 0 1-.408.128c-.174.182-.365.336-.638.273-.163.218-.39.419-.682.31-.037-.055-.082-.073-.146-.065a3.035 3.035 0 0 1-.164.273c-.728 1.101-1.837 2.021-2.938 2.667-.428.4-.848.655-1.384.546-.502-.073-1.72-1.456-2.221-3.213 0-.006-.003-.009-.009-.009a49.123 49.123 0 0 1-.736-2.856 4.064 4.064 0 0 0-.665-.793c-.19.036-.382.273-.591.09-.147-.144-.256-.308-.265-.518-.063-.336.292-.417.491-.572.01-.437.201-.711.283-.802.164-.172.183-.218.264-.318a.482.482 0 0 1 .355-.183c.273-.291.273-.035.554-.335.083-.082.4-.156.474-.038.146.256.428-.136.618.264.883-.436 1.73-.91 2.584-1.41-.136-.383-.29-.773-.28-1.192l1.683-.955c.382.126.655.564.919.873.227-.246.447.073.564.245.082.155.145.33.182.52l-.2.153c.136.438.282.902.345 1.393-.499.392-1.128.602-1.656.975-.483-.1-.791-.638-1.047-1.01h-.164L7.184 6.92c-.12.166.063.292 0 .51-.1.365-.19.71-.447 1.002.055.164.101.319.164.483.41 1 .801 1.592 1.621 2.412.172.235.172.363.319.482.29-.501.208-1.23.545-1.667.273-.445.564-.48.41-.8-.118-.092-.146-.282-.11-.427a.683.683 0 0 1 .027-.074c.219-.463.875-.591.957-1.147.109.038.145-.099.245-.082a.76.76 0 0 0-.245.292l.063.008c-.046.074-.074.137-.028.183.256.082.483.019.747.073.42.009.665.455 1.074.491.082-.009.145-.063.245-.1.073.01.128.091.164.146.019.027-.191-.147-.128.019l-.063-.028c.019.072.019.145.036.219.01.081.027.136.092.21.128-.01.1.207.226.163.01.172.338.082.229.3-.055.046-.164.008-.218.046-.028-.038-.019-.073-.065-.11.037.219.182.418.291.618.028-.126-.1-.254-.109-.382l.164.201-.019-.174c.128.256.283.01.384.256.027.072-.074.063-.082.11l-.065-.066c-.027.01-.008.046-.027.084l-.082-.138c-.118.082-.099.291-.072.438l.009-.01.046-.145c.036.117.027.2.082.272.027-.054.008-.136.044-.19.027.073.027.155.065.218a.095.095 0 0 0 .072-.074v-.109l.073.02v-.102h.073c.055-.063-.019-.117-.027-.18l.1-.019c-.146-.146.11-.19 0-.354.181-.038.118-.302.11-.456a.91.91 0 0 1-.047-.264c.173.491.183 1.11.09 1.556l.11-.218c.046.137-.072.219.019.254l.081-.145.028.137c.073-.11.1-.237.109-.374.12.2-.1.41-.027.537l.037-.046Zm-1.41-1.046c-.081 0-.127-.019-.163-.055a.185.185 0 0 1-.03-.109c0-.036.004-.076.011-.12 0-.043.008-.081.008-.125 0-.055-.008-.11-.054-.147 0 .01-.046.038-.046.038h-.008l-.074-.055c-.054-.037-.099-.054-.099-.138-.01.056-.037.065-.065.073h-.008V9.08l-.027-.192a.858.858 0 0 0-.063.081l-.065-.117-.019.019s-.071-.12-.082-.128v.008c0 .02-.008.028-.027.038l-.008.008h-.009a.17.17 0 0 0-.092-.09c-.044-.027-.09-.055-.09-.128h-.028c-.018 0-.03.006-.035.019-.074-.01-.137-.065-.193-.11l-.09-.072.018.017c.017.018.028.037.017.064-.081 0-.18-.073-.262-.146l-.092-.063.054.008h.038l-.092-.054a.227.227 0 0 0-.128-.055h-.027v.01a.41.41 0 0 1-.017.055v.008l-.019-.008-.073-.019-.082-.027a.222.222 0 0 1-.055.027c.01 0 .082.019.082.019.046.008.092.027.11.063l.01.019-.101-.01c-.09 0-.191 0-.245-.072-.036.054-.074.044-.11.044h-.027a.082.082 0 0 0-.065.038c-.017 0-.117-.01-.117-.01-.227.037-.437.19-.6.446.017.046-.019.09-.055.136-.046.046-.082.09-.073.145.09.092.172.111.245.111h.028l.082-.01.1-.009h.063c.065 0 .11 0 .174.11.008-.028.008-.028.027-.036l.036-.02.046-.018.099-.017h.019c.054 0 .09.033.109.099 0-.009.073-.027.073-.027.055 0 .09.027.136.054 0 0 .09.046.1.055l.056-.028.081.01.063.018c.038 0 .065-.017.082-.09v-.01h.01c.055.037.082.091.11.146.027.054.054.109.109.136a.153.153 0 0 0 .063-.09l.027-.055.008.028c0 .008.046.054.092.09.046.046.082.092.156.128v.008c0 .019-.01.074-.01.074 0 .046.037.063.081.081.046.028.092.046.092.11l.044-.11V9.78l.01.008a.185.185 0 0 1 .055.137l.036-.055.073.218.074.237v-.109l.017-.073.01.027.09.283c0 .009.009.017.009.017.082.065.1.174.1.302v.145c0 .063 0 .127.02.19a1.49 1.49 0 0 0 .043-.4c.01-.145.028-.3.065-.436l.017-.02v.02l.027.155-.035.3-.027.308.008.155v-.008c.046-.264.055-.556.065-.837l.017-.428s.037.027.046.036v-.036c0-.054.027-.1.065-.128a.156.156 0 0 1 .017.046c.006-.043.028-.064.064-.064.036.21.045.427.063.646l.02.318c.008-.127.016-.264.016-.39a1.68 1.68 0 0 0-.099-.61Zm-2.53 2.984-.173-.117c.046-.065.09.027.164 0l-.11-.128.028-.019c.073.019.182.055.218.065l-.245-.164c.117-.027.226.082.354.1-.036-.119-.19-.1-.272-.181.073-.074.19.054.272.017l-.237-.164c.128-.027.246.136.373.082-.109-.063-.245-.11-.327-.2.09-.01.229.082.327.082l-.182-.164c.084-.027.174.036.264.055l-.117-.128c.063-.008.163.027.245.046l-.245-.21c.063 0 .182.082.245.046l-.082-.1c.063-.055.145.1.2.017l-.118-.126c.074-.046.164.099.229.027l-.111-.109c.1-.082.174.082.247.044-.027-.054-.12-.071-.165-.145h.165c.017-.081-.092-.063-.1-.144l.19.027c0-.092-.1-.092-.145-.147.09-.073.145.036.227.063.019-.09-.2-.145-.19-.254.09.09.272.036.308.173l.018-.028c-.046-.109-.28-.172-.264-.308.1.027.164.163.292.145l-.292-.282-.017-.027a.56.56 0 0 1 .082.027c.099.045.19.155.309.2-.036-.072-.128-.136-.2-.2l-.01-.01c-.063-.054-.099-.082-.118-.136.082.01.155.1.227.146.037.018.073.036.12.018l-.028-.028c-.11-.145-.31-.2-.365-.344l.246.109c-.055-.147-.273-.19-.309-.31l.164.036c-.145-.118-.319-.173-.474-.263.11-.054.247.072.373.082-.117-.1-.264-.136-.39-.21h.227l-.017-.018c-.093-.055-.33-.045-.275-.164l-.619-.063c-.054.027-.081.09-.136.027v.099c-.063.029-.073-.063-.128-.063l.046.1c-.046.082-.128-.092-.109-.018l.046.082c-.018.046-.065-.009-.082-.018v.127c-.037 0-.054-.045-.081-.063l.017.117-.127-.09-.018.027c.054.055.027.118.082.172-.074.046-.074-.063-.145-.099-.02.09.09.126.044.2l-.099-.063c0 .063.082.109.036.163l-.1-.1c.008.063.045.1.064.163l-.128-.044c0 .063.09.118.045.164-.036.008-.082-.074-.082-.038 0 .046.073.092 0 .12l-.045-.038c.082.092.018.155-.018.228l-.019.036-.027-.036-.1-.146c-.01.054 0 .092.028.136l.009.019c.035.065.073.109.046.174-.065-.01-.082-.183-.1-.128-.119.1.045.237.018.336-.092-.017-.046-.11-.12-.137.02.101.101.183.038.256l-.073-.073c0 .073.09.1.036.174l-.064-.028.101.172c-.147.055.063.173.017.255l-.136-.127.428.546c-.036.018-.055-.019-.082-.009-.118.045 0 .11-.019.164a.31.31 0 0 1-.164-.11l.164.246c-.18-.109-.382-.3-.41-.51l-.026.02.027.027c.027.09.155.226.019.327l-.02-.027c-.035 0-.045.027-.062.044l-.128-.208c-.009.136.11.237.063.354-.063-.063-.082-.155-.118-.236 0 .109.055.21.036.291l-.036-.036v.082c.11.118-.054.263.02.39-.047 0-.066.038-.066.074v.008c-.008.055.01.092 0 .12h-.017c0 .163-.192.28-.21.455-.037-.155.072-.292.064-.456-.055.137-.063.273-.145.39l-.038-.035c.055-.1.055-.218.082-.327l-.126.18c-.037-.109.072-.226.044-.327l-.126.229c-.073-.082.072-.174.009-.237l-.009-.019-.01.019-.09.172a.293.293 0 0 1 .027-.172l.055-.183-.145.092c.008-.092.063-.155.099-.228-.137.008-.128.21-.219.201l.12-.283-.166.164c-.008-.009-.027-.027-.027-.046l-.09.146c-.046-.018-.019-.064-.028-.1a.333.333 0 0 1-.136-.046l.118-.18.018.016c.009.046-.008.073-.018.1l.082-.081c.01.019.027.027.018.046h.11c.027-.073.154-.136.081-.229l-.046.046c-.017 0-.027-.008-.036-.027a.25.25 0 0 0 .036-.12l-.017.02c-.046.018-.065-.02-.092-.036.12-.092-.054-.136 0-.246-.153.036-.008-.127-.054-.155l-.036.046c-.09-.109-.082-.182-.191-.247 0-.063-.147-.09-.063-.163l-.084-.018c-.008-.064.092-.109.046-.163-.082.036-.1.19-.19.136-.01-.119.19-.182.163-.283l-.164.164c-.264-.027.145-.237.063-.39-.153-.028-.136-.164-.19-.265l-.036-.064-.1.064-.228.164.118-.164.063-.109-.126.11-.073.054a.09.09 0 0 1 0-.055c.027-.092.182-.155.163-.228l-.226.182-.02-.018.183-.246c-.119 0-.128.201-.245.164 0-.136.153-.154.227-.263-.055-.301-.2.118-.309.055.027-.092.145-.138.208-.22.11-.227-.208-.317-.126-.5l-.12.028c-.008-.038.028-.046.038-.065l-.065-.017.019-.027v-.01a.343.343 0 0 1 .063-.09c-.054-.01-.09.1-.136.045 0-.046.054-.073.082-.109l-.128.027.083-.155c-.037 0-.065.09-.1.028.027-.046.117-.074.081-.147-.046.01-.073.065-.1 0 .054-.145-.027-.245-.082-.344l.036-.128-.145-.065c.046-.126.291.01.355-.118-.028.009-.036-.008-.045-.018l.082-.072.044-.037h-.044c-.092 0-.201.037-.247-.055l.019-.027h.054c.013 0 .022.009.027.027.009-.071.183-.054.11-.145.073-.046.218-.037.245-.128-.072.009-.136.074-.208.02.036-.101.18-.047.245-.12l-.182-.017c-.008-.027.009-.027.019-.046H6.72c-.008-.074.164-.09.246-.145-.246-.055.092-.073.082-.165-.055.01-.11.083-.164.027l.164-.126h-.055c-.017 0-.027 0-.027-.019l.082-.082-.063-.063.035-.037c-.071-.118-.027-.265-.017-.418l-.082-.019c0-.036.045-.054.064-.082H6.84a.348.348 0 0 1 .09-.073c-.128.046-.19-.071-.273-.117l.063-.055c0-.027 0-.055-.027-.065l-.099.082-.037-.082c-.118.01-.254-.153-.309-.262l.036-.038c.027.01.046.055.082.055-.036-.017-.073-.11-.145-.11-.013-.005-.025-.002-.038.01-.098.072-.081.192-.081.3.054.265.327.383.492.5.017.092-.037.147.045.229-.018.046-.055 0-.074 0h-.008l.054.063c-.09 0-.054.12-.109.109a.077.077 0 0 1-.027-.009c.073.063-.09.055 0 .118l-.082.046.036.036c-.136.027.01.12-.118.128l.082.081c-.008.02-.019.02-.027.02H6.31c0 .026-.008.045.019.062-.128.074-.31.092-.392.229l.046.054-.31.21.182-.065-.19.201c.045-.037.108-.082.163-.082a.16.16 0 0 1 .046.009l-.082.073-.201.172c.082-.054.174-.145.264-.128l-.163.164.182-.054c-.019.081-.1.073-.147.138h.147l-.1.126c.018.019.09 0 .062.082h.038c.072.054-.046.073-.038.119l.12-.01c.027.046-.046.054-.038.092L6 9.006l-.099.136c.017.009.045 0 .055.028-.028.018-.019.035-.019.054.027.019.082-.008.1.027-.027.046-.1.063-.081.128.036.009.036.028.027.055-.019.036-.082.09-.065.145.065-.009.1-.155.183-.082-.063.046-.074.12-.145.164.063-.018.117-.118.19-.064-.108.128-.245.328-.391.336l.018-.063c-.19 0 .1-.145.02-.227l-.12.064c-.072-.055.046-.082.037-.128h-.037c-.036-.02-.017-.063-.027-.1a.134.134 0 0 1-.055-.045c-.063-.092.01-.237-.044-.3-.057-.147-.147-.283-.12-.42l-.081-.035c0-.028-.009-.055.008-.065-.145.073-.3.201-.336.365l.118-.092c.065.054-.036.081-.036.136l.118-.082c.027.038-.028.082-.036.12l.082-.01c0 .056-.046.091-.074.137.265-.081-.054.137.046.227h.036v.019c-.027.09.074.126-.008.227.018.01.063-.018.082.018-.074.128.09.172 0 .309h.1l-.065.128c.028-.02.046-.063.082-.063.046.054-.036.109-.063.163l.128-.082c.046.02-.01.055 0 .082l.063.019-.082.145.1-.019c-.081.082-.018.147-.045.228.1.063.037.128 0 .21l.109-.092c.027.073-.045.136-.072.218l.11-.09c.008.073-.074.155-.083.245l.127-.063-.063.246c.09-.063.008-.137.117-.183.046.137-.117.237-.082.346.055-.054.038-.163.128-.145l-.082.273c.055-.054.082-.182.164-.164l-.1.246.1-.082c.027.099-.09.182-.1.292l.119-.128c.036.082-.065.163-.055.264l.1-.136c.037.081-.064.145-.064.245l.1-.046-.037.164.1-.118c.01.118-.073.164-.081.3l.1-.164c.036.145-.064.21-.035.346l.098-.2c.046.154-.054.2-.044.364l.145-.264c0 .136-.046.19-.073.327l-.009.027.019-.017.145-.228c0 .1-.036.21-.063.319-.019.046-.01.008-.019.063.036-.045 0-.036.055-.063 0 0 .027-.036.027 0 .008.063.046 0 .082 0 .005 0 .014.009.027.027-.027.1-.046.19-.063.291l.082-.109.017.028a6.88 6.88 0 0 1-.063.245l.109-.19c.027.09-.055.245-.028.29l.082-.1c.055.055-.008.11 0 .182l.065-.081c.055.081-.019.153 0 .245l.082-.128c.044.055.008.118 0 .172l.063-.109c.1.065-.019.147.019.229l.044-.063c.147 0 .092.19.1.29.036-.064.01-.154.082-.181l.02.262c0-.054.016-.099.062-.126l.019.373c.054-.054-.019-.174.063-.228l.046.228.055-.128c.063.101-.028.173 0 .273l.109-.163a.338.338 0 0 1-.028.182.087.087 0 0 1 .046-.019c.055 0 .009.183.1.128-.091.237.192.245.263.39l.02-.017.1.082.063-.065c.027.082.063.082.117.065l.092.017h.055c.2-.017.428-.099.564-.272.191-.045.082-.255.227-.364 0-.006.003-.006.01 0 .036 0 .055.072.09.009.028-.046-.035-.063-.054-.09.063-.038.008-.082.019-.128l.1-.028-.019-.054h.145l-.044-.065c.072-.063.118-.09.19-.082h.037l-.046-.044c.064 0 .082-.092.128-.092.018-.008.035.01.063.037v-.108c.018-.02.064-.082.119-.082.012 0 .028.009.046.027-.092-.11.063-.12.082-.21.027.009.044.045.09.045l.009-.009c-.036-.082-.009-.145-.017-.218l.145-.027c-.036-.02-.082-.009-.11-.055l.11-.046c-.028-.008-.028-.036-.028-.063h.164l-.082-.1c.008-.01.019-.02.027-.02h.019v-.081h.019c.044-.009.09.046.126.046.012 0 .028-.01.046-.027l-.155-.118h.155c-.009-.046-.046-.065-.073-.073a.163.163 0 0 1-.082-.055c.046-.046.1 0 .155 0l-.082-.146c.055.01.136.083.172.018Zm.355-4.368.164.027.017.046-.18-.073Zm-.153.136c.11-.036.11-.09.235-.036-.099.009-.153.164-.235.036Zm1.938 1.093c-.037.018-.019.054-.027.082l-.055-.055c-.019.019-.037.008-.065.008v-.081c.065.081.202-.137.248-.009l.035-.155.028.373c-.1 0-.11-.109-.164-.163Zm-3.313-6.28-.09.063c.008 0 .035.055.062.093v-.047c0-.018 0-.027.02-.035h.008l.01.008c.036.036.099.11.099.183l-.009.008V3.6s-.054-.046-.082-.063c.046.2.164.374.283.554l.11.166c-.01-.092-.065-.174-.11-.248-.054-.081-.1-.153-.1-.245v-.017l.008.008c.082.064.12.156.164.237.054.137.1.254.256.236l-.055-.11c-.038-.071-.082-.144-.082-.226v-.027l.017.027c.065.073.11.163.164.254.046.092.092.192.165.274l-.046-.109-.054-.155v-.027l.018.017c.2.302.363.602.546.937.182.357.382.72.61 1.057l-.01-.109c-.044-.274-.09-.583-.246-.929a2.623 2.623 0 0 1-.346-.51l-.245-.381v-.147l.21.365c.081.145.163.3.28.436-.081-.291-.253-.564-.417-.818l-.155-.245-.564-.62c-.145-.083-.3.028-.42.118Zm1.72 2.284-.573-1.073.018-.009.573 1.02v.044l-.019.018Zm-.72-.872c.201.554.528.992.765 1.51l.064-.027-.829-1.483Zm.027-.447c.074.01.065.082.1.128-.062.019-.062-.082-.1-.128Zm-.272-.273.255.428a1.06 1.06 0 0 1-.255-.428Zm-.346-.063-.063-.1.081.065v.044l-.018-.009Zm.2-.226-.037-.082.055.036v.046h-.019Zm-.284-.128-.153-.292.163.229-.01.027v.036Zm1.248 1.856.254.418v.073l-.254-.491Zm-.745-1.556-.065-.128.082.092v.044l-.017-.008Zm-3.857 7.263-.065.035.136-.163-.071.128Zm.082.081-.082.082.1-.163-.018.081Zm.046-.627c-.082.11-.202.319-.338.42l.338-.42Zm.1.118-.354.419-.02-.019.355-.419.02.019Zm-.008.128.081-.101.02.019-.093.1-.008-.018Zm-.101.51-.063.062.082-.163-.019.1Zm.147-1.475-.02-.019.11-.109.008.019-.098.109Zm-.62.682.11-.219-.153.046c.063-.144.245-.236.335-.337-.035.054-.063.12 0 .147-.09.117-.136.28-.291.363Zm-.072-.41.046-.117h-.11c.074-.128.229-.237.355-.319-.008.063-.09.09-.099.145l.118-.017-.31.309Zm.228.718c-.073-.063-.046-.136 0-.208l.017-.027c-.036-.055-.063.027-.109.027.046-.128.164-.247.256-.337l-.11.21.154-.065c.082.127-.145.264-.208.4Zm.055-.927a1.649 1.649 0 0 1-.248.308c-.017-.098.156-.207.248-.308ZM7.262 11.7l-.146.19-.019-.081c-.036.008-.063.008-.082.036l.164-.254-.063.172.146-.063Zm-.2-.319-.146.228-.035.028.182-.256Zm.074.099c-.037.1-.136.201-.192.273.037-.1.092-.227.192-.273Zm-.037-.71-.072.055.154-.182-.082.128Zm.228 1.175h-.019l.055-.1c.063.018-.046.054-.036.1Zm-.692-1.992.128-.128.008.019-.117.126-.019-.017Zm.69 1.801a.588.588 0 0 1-.172.237c0-.054.1-.182.172-.237Zm-.88-.245c-.02-.063.054-.164.125-.191 0 .082-.109.12-.126.19Zm.062.082c-.054-.055.082-.145.128-.191.009.046-.065.136-.128.19Zm.246-.118-.128.172-.017-.008.126-.172.019.008Zm.364-.574.145-.173.01.018-.146.165-.009-.01Zm.219-.065c-.045.065-.082.128-.126.19-.055-.054.081-.125.126-.19Zm-.51.692c.046.046-.09.109-.099.172-.046-.044.055-.118.099-.172Zm.465-.455.126-.155.02.018-.129.145-.017-.008Zm.483 1.174-.063.145-.036.038.099-.183Zm.682 2.676.081.11-.018.008-.082-.11.019-.008Zm-.118.009.1.136-.01.019-.09-.155Zm.474-.227.063.063-.017.019-.046-.082ZM6.727 9.981h.036l-.055.063.02-.063Zm2.03 4.824.046.044-.065-.044h.02Zm-.982-2.35-.064.055.109-.182-.045.128Zm-.208-.272-.064.065.1-.21-.036.145Zm-.727-1.948-.092.037.127-.119-.035.082Zm-.045.683-.064.072.064-.09v.018Zm7.297-.847c-.027.174-.117.357-.082.529h.046c0-.183.11-.346.036-.529Zm-.208.975c-.073-.027-.163.027-.163.082.054-.027.153-.027.163-.082Zm-.319.21-.136.126.09.019.046-.145Zm-.163-.61-.019-.3-.027.31.046-.01Zm-.208.226h-.046V11h.046v-.128Zm-.675-.473h-.055v.146h.055V10.4Zm-.445 1.11c.027-.02.036-.047.063-.047-.019-.036.073-.145-.019-.182.01.182-.262.065-.245.264-.126-.09 0 .146-.145.109-.019.136-.117.19-.163.329-.028-.019-.038-.055-.065-.046a.405.405 0 0 1-.055.245l-.063-.018c-.027.037-.036.109-.1.082l.018.127c-.046-.008-.109.01-.145-.027l.017.082c-.054.082-.155.228-.245.21l.019.1c-.137.082-.074.336-.264.336.081.054.172.065.264.092l-.038-.082h.183l-.145-.12c.054-.016.218.047.19.02l-.064-.064.247.028c-.082-.084-.201-.111-.264-.193.09-.036.2.082.281.065l-.18-.147c.09-.017.207.11.308.065l-.183-.12c.065-.081.101.055.183.02l.019-.11.127.028-.127-.128h.144c-.017-.017-.046-.027-.046-.055h.147l-.063-.09c.118-.01.027-.046.082-.12l.126.038-.044-.12c.109.011-.028-.07.044-.098.046 0 .11.072.147.017l-.147-.082.038-.044.027.027c.117.027.054-.037.099-.11l.081.027c-.027-.1.139-.208-.044-.309Zm-1.128 1.765c-.055-.065-.137-.136-.246-.11l-.018.127c.008.065.073.082.127.082v-.082l.137-.017Zm-.246-.382-.029.055h.065c.009-.028-.027-.036-.036-.055ZM9.362 11.8l.055.056-.12-.138.065.082ZM6.405 7.013a.996.996 0 0 0-.082-.226v.18l-.1-.035v.018c.018.082.119.1.182.063Zm5.26 1.72c.073-.082-.008-.163-.046-.218.065-.008.092.073.147.11l.017.146a.252.252 0 0 1-.118-.038Zm-6.634.128.346-.373c-.109-.073-.019-.246-.182-.264-.009-.11.073-.227.117-.265l-.163.082c-.21.082-.41.283-.464.466l.2-.202c.01.11-.145.174-.137.31.019-.018.028-.054.055-.045.054.018 0 .054 0 .081l.082.02c.018.044-.028.054-.017.081l.081-.037c.028.01.017.037.017.064h.084c.017.028-.027.046-.019.082Zm-.082-1.42-.046-.063c-.19.036-.327.191-.51.227-.163.036-.245.273-.427.128.019.1.155.172.201.264l.017-.12c.246-.163.547-.245.765-.436Zm-.782.93c-.01-.028-.037-.028-.065-.028.038.027-.017.118.065.09V8.37Zm-.392-.538c.118.118.164.319.291.455 0-.1-.1-.173-.063-.255l.145.192-.046-.146c-.054-.155-.21-.319-.39-.309-.038.036-.12.118-.055.18.273.055.236.393.41.538-.064-.227-.237-.428-.292-.655Zm.355-.428h.037c.072-.081.319-.081.227-.245.082.019.082-.147.146-.027l.017-.1c.246.091.4.3.657.372.109.009.109-.1.126-.163-.055-.256-.208.063-.309-.073.018-.079.04-.16.063-.246h-.063v-.082l-.128.028.046-.11-.19.064.044-.118c-.063 0-.126.073-.18.019l.016-.046-.099.027.017-.11-.127.083a.456.456 0 0 0-.137.409c-.027-.009-.054-.055-.082-.055v.21c-.081 0-.027.136-.081.163Zm.773-.828c.273.1.42.355.455.592.009.127.074.163.156.163h.018c.036 0 .072-.008.11-.008h.016c.019 0 .037.003.055.008.065 0 .037-.082.082-.117-.055-.055-.045-.183-.154-.183-.018.055.045.063.028.128a.088.088 0 0 0-.065-.027h-.027c-.055.008-.11.027-.137.063l-.018-.027c-.009-.137.155-.219.264-.265.01-.054-.017-.054-.055-.054-.027-.009-.054-.009-.071-.027.017-.018.054-.028.044-.064l-.145-.018s.036-.036.056-.038l-.138-.025v-.02c.017-.008.027-.043.055-.043h-.01c-.036 0-.082.017-.11-.02.028-.026.065-.026.082-.054h-.163l.046-.046-.145-.018.027-.028-.155-.017c.019-.01.027-.027.046-.037l-.147.018.063-.1c-.071-.009-.126.054-.18.054a.405.405 0 0 1-.046-.017c.008-.01.027-.018.018-.037l-.081.054c-.1.183.153.156.226.21Zm.612.126.007.002c-.001-.001-.003-.002-.007-.002Zm-.465-.472c.3.11.646.319.745.656.054-.092.218-.119.302-.1l-.055-.11c-.065.01-.11.082-.165.028.027-.073.1-.036.136-.082l-.164-.027c.028-.019.046-.055.082-.055l-.126-.027c0-.046.055-.027.072-.065l-.164-.017c.019-.046.065-.019.092-.065-.054 0-.12.02-.164-.017l.11-.064-.21-.017c.019-.02.054-.028.09-.038l-.19-.027c.018-.027.054-.027.081-.036l-.182-.019.082-.063c-.137.074-.39-.073-.372.145Zm.426-.291c.038.092.155.155.247.182.137.027.191.228.336.21.019-.1-.136-.164-.017-.246-.046-.008-.084.019-.11-.019l.11-.081h-.237l.082-.082c-.082-.055-.128.09-.201.019l.082-.082c-.11 0-.191.063-.292.099Zm.62 1.648h-.073c-.019 0-.037 0-.054.017.054.01.09-.009.128-.017Zm-.301.281-.072.065.11-.065h-.038Zm.264-.18a.732.732 0 0 0-.474.207l.474-.208Zm-.019-.783-.017.082-.065-.063c-.008.027 0 .054-.017.063-.029-.009-.037-.044-.064-.044.018.071-.063.054-.082.081.027.11.09.246.245.191.12-.046.147-.19.1-.291-.035.008-.072-.009-.1-.019Zm.864-.637c.22.182.384-.154.575-.181.155-.128.445-.164.591-.356.646-.328 1.32-.646 1.957-1.037V4.65c-.01-.063-.073-.073-.128-.063L6.904 6.233v.036Zm2.458-2.385.036.065.027-.038-.044-.054-.019.01v.017ZM6.923 9.516h.027c.02-.009.02-.036.02-.063l-.047.063Zm.09.046-.063.063h.036c.028-.009.028-.046.028-.063Zm.02.272h.045c0-.027.082-.073.017-.081l-.063.081Zm.473.764h.046c.027-.027.055-.044.044-.082-.071-.036-.09.027-.09.082Zm.155.146c.009-.018.045-.037.045-.064H7.66v.065Zm.082.174h.055c.054-.018.044-.109.035-.136l-.09.136Zm.155-.037-.109.165h.036c.054-.046.136-.128.073-.165Zm.082.082-.063.146h.008L8 11.046l-.02-.083Zm-.038.281.055.008a.434.434 0 0 0 .092-.18c-.073.017-.12.109-.147.172Zm.183-.055-.145.21.09-.046.055-.164Zm.082.046-.164.282.082-.055.082-.227Zm0 .246h.035l.02-.126-.055.126Zm2.703-6.099-.164-.354c.072.12.2.218.172.373l-.008-.019Zm.218.82-.545-.937-.055.017.546.964.018-.027.036-.017Zm-.155-.027-.218-.41-.055.01-.008.01.226.409.055-.02Zm.782-2.567.046.092.02-.038-.066-.054Zm.728 6.071.027-.128.028.128h-.055Zm-4.788 2.494-.082.163-.017.018.1-.181Zm-.109-.208c-.046.055-.065.153-.146.145-.09-.055-.02-.172.064-.229l-.046.128.128-.044ZM5.156 6.45h.018-.018Z" clip-rule="evenodd"/>
  </g>
  <defs>
    <clipPath id="a">
      <path fill="#fff" d="M0 0h18v18H0z"/>
    </clipPath>
  </defs>
</svg>
