<svg xmlns="http://www.w3.org/2000/svg" viewBox="0 0 18 18">
  <g clip-path="url(#a)">
    <path fill="#fff" d="M0 0h18v18H0V0Z"/>
    <path fill="#008DB8" d="M14.617 6.595C13.274 5.589 11.121 4.8 8.997 4.8v.233c2.251 0 4.08 1.776 4.08 3.965s-1.826 3.961-4.08 3.961v.234c2.124 0 4.277-.791 5.627-1.795C15.526 10.724 16 9.875 16 8.995c0-.88-.474-1.73-1.376-2.403"/>
    <path fill="#D6007F" d="M8.996 12.959c-2.251 0-4.08-1.775-4.08-3.964 0-2.19 1.829-3.964 4.08-3.964V4.8c-2.126 0-4.277.789-5.627 1.795C2.474 7.267 2 8.115 2 8.998c0 .882.474 1.729 1.376 2.402 1.345 1.005 3.496 1.795 5.627 1.795v-.236"/>
    <path fill="#231815" d="M9.512 9.012c-.186-.099-.398-.157-.398-.282 0-.066.042-.14.155-.14a.497.497 0 0 1 .406.29h.203v-.448h-.221v.148a.703.703 0 0 0-.464-.187c-.317 0-.602.166-.602.462 0 .233.11.379.361.511.312.165.445.214.445.343a.14.14 0 0 1-.155.13.459.459 0 0 1-.404-.308h-.226v.5h.232V9.88a.818.818 0 0 0 .471.188c.442 0 .6-.281.6-.502 0-.33-.217-.452-.407-.554m1.917-.109a.477.477 0 0 0-.498-.51.804.804 0 0 0-.534.187v-.148h-.22v.461h.201a.387.387 0 0 1 .314-.246c.086 0 .156.06.156.211v.176a.515.515 0 0 0-.298-.093c-.183 0-.481.168-.481.594 0 .297.14.53.437.53a.395.395 0 0 0 .342-.185v.149h.74v-.22h-.159v-.906Zm-.578.657c0 .17-.07.213-.12.213-.082 0-.135-.064-.135-.214 0-.232.089-.353.182-.353.045 0 .073.03.073.088v.266Zm-3.9.23h-.65v-.898h.331v.22h.282v-.68h-.282v.22h-.33v-.778h.61v.319h.281V7.63H5.368v.24h.212v1.92h-.212v.239h1.86v-.6h-.282v.36ZM8.23 8.432h-.813v.22h.193v1.157h-.193v.22h1.008v-.22H8.23V8.432Zm-.309-.14a.34.34 0 1 0 0-.679.34.34 0 0 0 0 .678Zm4.63 1.517V8.432h-.82v.22h.194v1.157h-.193v.22h1.006v-.22h-.187Zm-.31-1.516a.34.34 0 1 0 0-.679.34.34 0 0 0 0 .679Z"/>
  </g>
  <defs>
    <clipPath id="a">
      <path fill="#fff" d="M0 0h18v18H0z"/>
    </clipPath>
  </defs>
</svg>
